<svg width="147" height="37" viewBox="0 0 147 37" fill="none" xmlns="http://www.w3.org/2000/svg">
<path d="M0.872 7.104H9.8V36H15.272V7.104H24.152V2.64H0.872V7.104ZM35.1658 22.08C35.1658 16.464 37.6618 14.784 41.6938 14.784H43.0858V9.12C39.3418 9.12 36.7018 10.752 35.1658 13.392V9.552H29.6938V36H35.1658V22.08ZM59.2516 13.728C63.3316 13.728 66.5476 16.32 66.6436 20.4H52.0036C52.5796 16.224 55.5556 13.728 59.2516 13.728ZM71.6356 28.128H65.7316C64.7236 30.192 62.8516 31.824 59.4916 31.824C55.4596 31.824 52.3396 29.184 51.9556 24.816H72.1636C72.3076 23.904 72.3556 23.04 72.3556 22.128C72.3556 14.352 67.0276 9.12 59.4916 9.12C51.6676 9.12 46.2916 14.448 46.2916 22.752C46.2916 31.056 51.9076 36.432 59.4916 36.432C65.9716 36.432 70.1476 32.736 71.6356 28.128ZM77.7406 36H83.2126V0.48H77.7406V36ZM115.597 22.752C115.597 14.448 109.645 9.12 102.109 9.12C94.5729 9.12 88.6209 14.448 88.6209 22.752C88.6209 31.056 94.3329 36.432 101.869 36.432C109.453 36.432 115.597 31.056 115.597 22.752ZM94.1889 22.752C94.1889 16.752 97.8849 13.872 102.013 13.872C106.093 13.872 109.981 16.752 109.981 22.752C109.981 28.752 105.949 31.68 101.869 31.68C97.7409 31.68 94.1889 28.752 94.1889 22.752ZM146.206 22.752C146.206 14.448 140.254 9.12 132.718 9.12C125.182 9.12 119.23 14.448 119.23 22.752C119.23 31.056 124.942 36.432 132.478 36.432C140.062 36.432 146.206 31.056 146.206 22.752ZM124.798 22.752C124.798 16.752 128.494 13.872 132.622 13.872C136.702 13.872 140.59 16.752 140.59 22.752C140.59 28.752 136.558 31.68 132.478 31.68C128.35 31.68 124.798 28.752 124.798 22.752Z" fill="white"/>
</svg>
